<?xml version="1.0" encoding="UTF-8"?>
<svg xmlns="http://www.w3.org/2000/svg" baseProfile="tiny" version="1.2" viewBox="0 0 15 20" fill="#8E8FA0">
  <path d="M1.25,0C.559,0,0,.559,0,1.25s.558,1.25,1.25,1.25v.43c0,1.656.66,3.246,1.832,4.418l2.648,2.652-2.648,2.652c-1.172,1.172-1.832,2.762-1.832,4.418v.43c-.691,0-1.25.559-1.25,1.25s.558,1.25,1.25,1.25h12.496c.691,0,1.25-.559,1.25-1.25s-.558-1.25-1.25-1.25v-.43c0-1.656-.66-3.246-1.832-4.418l-2.648-2.652,2.652-2.652c1.172-1.172,1.832-2.762,1.832-4.418v-.43c.691,0,1.25-.559,1.25-1.25s-.559-1.25-1.251-1.25H1.249h0ZM3.749,2.93v-.43h7.497v.43c0,.742-.219,1.461-.625,2.07h-6.248c-.402-.609-.625-1.328-.625-2.07ZM4.374,15c.137-.207.297-.402.473-.582l2.652-2.648,2.652,2.652c.18.18.336.375.473.582l-6.248-.004h-.002Z"/>
</svg>