<?xml version="1.0" encoding="UTF-8"?>
<svg xmlns="http://www.w3.org/2000/svg" baseProfile="tiny" version="1.2" viewBox="0 0 20 20">
  <!-- Generator: Adobe Illustrator 28.7.1, SVG Export Plug-In . SVG Version: 1.2.0 Build 142)  -->
  <g>
    <g id="Layer_1">
      <path d="M6.119,15.033l-1.207-1.207c-.332-.332-.449-.812-.301-1.258.117-.348.273-.801.461-1.32H.94c-.336,0-.648-.18-.816-.473s-.164-.652.008-.941l2.051-3.457c.508-.855,1.426-1.379,2.418-1.379h3.215c.094-.156.187-.301.281-.441C11.295-.161,16.06-.318,18.904.206c.453.082.805.437.891.891.523,2.848.363,7.609-4.351,10.808-.137.094-.285.187-.441.281v3.215c0,.992-.523,1.914-1.379,2.418l-3.457,2.051c-.289.172-.648.176-.941.008s-.473-.477-.473-.816v-4.187c-.551.191-1.031.348-1.394.465-.437.141-.914.02-1.242-.305h.004ZM15.002,6.561c.863,0,1.562-.7,1.562-1.562s-.7-1.562-1.562-1.562-1.562.7-1.562,1.562.7,1.562,1.562,1.562Z" fill="#a8ca55"/>
    </g>
  </g>
</svg>