<?xml version="1.0" encoding="UTF-8"?>
<svg xmlns="http://www.w3.org/2000/svg" baseProfile="tiny" version="1.2" viewBox="0 0 20 20">
  <!-- Generator: Adobe Illustrator 28.7.1, SVG Export Plug-In . SVG Version: 1.2.0 Build 142)  -->
  <g>
    <g id="Layer_1">
      <path d="M6.531.691l-.281.559h-3.75c-.691,0-1.25.559-1.25,1.25s.559,1.25,1.25,1.25h15c.691,0,1.25-.559,1.25-1.25s-.559-1.25-1.25-1.25h-3.75l-.281-.559c-.211-.426-.645-.691-1.117-.691h-4.703c-.473,0-.906.266-1.117.691ZM17.5,5H2.5l.828,13.242c.062.988.883,1.758,1.871,1.758h9.602c.988,0,1.809-.77,1.871-1.758l.828-13.242Z" fill="#dc567e"/>
    </g>
  </g>
</svg>