<?xml version="1.0" encoding="UTF-8"?>
<svg xmlns="http://www.w3.org/2000/svg" baseProfile="tiny" version="1.2" viewBox="0 0 20 20">
  <!-- Generator: Adobe Illustrator 28.7.1, SVG Export Plug-In . SVG Version: 1.2.0 Build 142)  -->
  <g>
    <g id="Layer_1">
      <path d="M16.048,9.035l.442-.442-1.326-1.326-2.429-2.428-1.326-1.326-.442.442-.884.884-7.791,7.789c-.407.407-.704.911-.868,1.462L.039,18.798c-.098.328-.008.684.239.927.246.242.598.332.927.239l4.705-1.384c.551-.164,1.056-.461,1.463-.868l7.791-7.789.884-.888ZM6.258,15.619l-.356.888c-.156.121-.332.211-.52.27l-3.059.899.9-3.054c.055-.192.149-.368.27-.52l.888-.356v1.251c0,.344.282.626.626.626h1.252v-.004ZM14.186.733l-.563.567-.884.884-.446.442,1.326,1.326,2.429,2.428,1.326,1.326.442-.442.884-.884.567-.567c.978-.978.978-2.561,0-3.539l-1.537-1.541c-.978-.978-2.562-.978-3.54,0h-.004ZM12.332,7.302l-5.632,5.631c-.242.242-.641.242-.884,0s-.242-.641,0-.884l5.632-5.631c.243-.242.641-.242.884,0s.243.641,0,.884h0Z" fill="#fff"/>
    </g>
  </g>
</svg>