<?xml version="1.0" encoding="UTF-8"?>
<svg xmlns="http://www.w3.org/2000/svg" baseProfile="tiny" version="1.2" viewBox="0 0 20 20">
  <path d="M0,16.25c0,.691.559,1.25,1.25,1.25h2.137c.48,1.105,1.582,1.875,2.863,1.875s2.383-.77,2.863-1.875h9.637c.691,0,1.25-.559,1.25-1.25s-.559-1.25-1.25-1.25h-9.637c-.48-1.105-1.582-1.875-2.863-1.875s-2.383.77-2.863,1.875H1.25c-.691,0-1.25.559-1.25,1.25ZM5,16.25c0-.69.56-1.25,1.25-1.25s1.25.56,1.25,1.25-.56,1.25-1.25,1.25-1.25-.56-1.25-1.25ZM12.5,10c0-.69.56-1.25,1.25-1.25s1.25.56,1.25,1.25-.56,1.25-1.25,1.25-1.25-.56-1.25-1.25ZM13.75,6.875c-1.281,0-2.383.77-2.863,1.875H1.25c-.691,0-1.25.559-1.25,1.25s.559,1.25,1.25,1.25h9.637c.48,1.105,1.582,1.875,2.863,1.875s2.383-.77,2.863-1.875h2.137c.691,0,1.25-.559,1.25-1.25s-.559-1.25-1.25-1.25h-2.137c-.48-1.105-1.582-1.875-2.863-1.875ZM7.5,5c-.69,0-1.25-.56-1.25-1.25s.56-1.25,1.25-1.25,1.25.56,1.25,1.25-.56,1.25-1.25,1.25ZM10.363,2.5c-.48-1.105-1.582-1.875-2.863-1.875s-2.383.77-2.863,1.875H1.25c-.691,0-1.25.559-1.25,1.25s.559,1.25,1.25,1.25h3.387c.48,1.105,1.582,1.875,2.863,1.875s2.383-.77,2.863-1.875h8.387c.691,0,1.25-.559,1.25-1.25s-.559-1.25-1.25-1.25h-8.387Z"/>
</svg>