<?xml version="1.0" encoding="UTF-8"?>
<svg xmlns="http://www.w3.org/2000/svg" baseProfile="tiny" version="1.2" viewBox="0 0 20 20" fill="#8E8FA0">
  <path d="M15.272,5.862h-2.168c-.763,0-1.379.616-1.379,1.379s.616,1.379,1.379,1.379h5.517c.763,0,1.379-.616,1.379-1.379V1.725c0-.763-.616-1.379-1.379-1.379s-1.379.616-1.379,1.379v2.207l-.759-.759C12.712-.599,6.6-.599,2.829,3.173c-3.771,3.771-3.771,9.883,0,13.654,3.771,3.771,9.883,3.771,13.654,0,.539-.539.539-1.414,0-1.952s-1.414-.539-1.952,0c-2.694,2.694-7.06,2.694-9.754,0s-2.694-7.06,0-9.754,7.06-2.694,9.754,0l.741.741Z"/>
</svg>