<?xml version="1.0" encoding="UTF-8"?>
<svg xmlns="http://www.w3.org/2000/svg" baseProfile="tiny" version="1.2" viewBox="0 0 10 20" fill="#8E8FA0">
  <path d="M5.882.366c-.488-.488-1.28-.488-1.768,0L.366,4.116c-.488.488-.488,1.281,0,1.769s1.28.488,1.768,0l1.616-1.617v11.464l-1.616-1.617c-.488-.488-1.28-.488-1.768,0s-.488,1.281,0,1.769l3.748,3.75c.488.488,1.28.488,1.768,0l3.748-3.75c.488-.488.488-1.281,0-1.769s-1.28-.488-1.768,0l-1.612,1.613V4.264l1.616,1.617c.488.488,1.28.488,1.768,0s.488-1.281,0-1.769L5.886.362l-.004.004Z"/>
</svg>