<?xml version="1.0" encoding="UTF-8"?>
<svg xmlns="http://www.w3.org/2000/svg" baseProfile="tiny" version="1.2" viewBox="0 0 20 20">
  <path d="M19.995,9.981c0,.625-.521,1.115-1.111,1.115h-1.111l.024,5.564c0,.094-.007.188-.017.281v.563c0,.768-.622,1.389-1.389,1.389h-.556c-.038,0-.076,0-.115-.003-.049.003-.097.003-.146.003l-1.129-.003h-.834c-.768,0-1.389-.622-1.389-1.389v-3.056c0-.615-.497-1.111-1.111-1.111h-2.223c-.615,0-1.111.497-1.111,1.111v3.056c0,.768-.622,1.389-1.389,1.389h-1.941c-.052,0-.104-.003-.156-.007-.042.003-.083.007-.125.007h-.556c-.768,0-1.389-.622-1.389-1.389v-3.89c0-.031,0-.066.003-.097v-2.421h-1.111c-.625,0-1.111-.486-1.111-1.115,0-.313.104-.59.347-.834L9.249,1.385c.243-.243.521-.278.764-.278s.521.069.729.243l8.87,7.797c.278.243.417.521.382.834Z" fill="#020302"/>
</svg>