<?xml version="1.0" encoding="UTF-8"?>
<svg xmlns="http://www.w3.org/2000/svg" baseProfile="tiny" version="1.2" viewBox="0 0 20 20" fill="#8E8FA0">
  <path d="M6.905,19.444c-.742.742-1.948.742-2.694,0l-3.654-3.658c-.742-.742-.742-1.948,0-2.694l2.012-2.011,1.905,1.904c.246.246.651.246.897,0s.246-.651,0-.897l-1.905-1.904,1.643-1.642,1.905,1.904c.246.246.651.246.897,0s.246-.651,0-.897l-1.905-1.904,1.643-1.642,1.905,1.904c.246.246.651.246.897,0s.246-.651,0-.897l-1.905-1.904,1.643-1.642,1.905,1.904c.246.246.651.246.897,0s.246-.651,0-.897l-1.905-1.904,2.012-2.011c.742-.742,1.948-.742,2.694,0l3.654,3.654c.742.742.742,1.948,0,2.694l-12.538,12.54Z"/>
</svg>