<?xml version="1.0" encoding="UTF-8"?>
<svg xmlns="http://www.w3.org/2000/svg" baseProfile="tiny" version="1.2" viewBox="0 0 20 20">
  <!-- Generator: Adobe Illustrator 28.7.1, SVG Export Plug-In . SVG Version: 1.2.0 Build 142)  -->
  <g>
    <g id="Layer_1">
      <path d="M9.998,2.223c-2.805,0-5.052,1.278-6.687,2.798C1.686,6.528.6,8.333.086,9.573c-.115.274-.115.58,0,.854.514,1.239,1.601,3.045,3.225,4.552,1.635,1.521,3.882,2.798,6.687,2.798s5.052-1.278,6.687-2.798c1.625-1.51,2.712-3.312,3.229-4.552.115-.274.115-.58,0-.854-.517-1.239-1.604-3.045-3.229-4.552-1.635-1.521-3.882-2.798-6.687-2.798ZM4.999,10c0-2.761,2.238-5,5-5s5,2.238,5,5-2.238,5-5,5-5-2.238-5-5ZM9.998,7.778c0,1.226-.996,2.222-2.222,2.222-.247,0-.483-.042-.705-.115-.191-.062-.413.056-.406.257.01.24.045.479.111.719.476,1.778,2.305,2.833,4.083,2.357s2.833-2.305,2.357-4.083c-.385-1.441-1.66-2.41-3.076-2.469-.201-.007-.319.212-.257.406.073.222.115.458.115.705h0Z" fill="#fff"/>
    </g>
  </g>
</svg>