<?xml version="1.0" encoding="UTF-8"?>
<svg xmlns="http://www.w3.org/2000/svg" baseProfile="tiny" version="1.2" viewBox="0 0 20 20">
  <path d="M0,2.857c0-.79.638-1.429,1.429-1.429h17.143c.79,0,1.429.638,1.429,1.429s-.638,1.429-1.429,1.429H1.429c-.79,0-1.429-.638-1.429-1.429ZM0,10c0-.79.638-1.429,1.429-1.429h17.143c.79,0,1.429.638,1.429,1.429s-.638,1.429-1.429,1.429H1.429c-.79,0-1.429-.638-1.429-1.429ZM20,17.143c0,.79-.638,1.429-1.429,1.429H1.429c-.79,0-1.429-.638-1.429-1.429s.638-1.429,1.429-1.429h17.143c.79,0,1.429.638,1.429,1.429Z"/>
</svg>