<?xml version="1.0" encoding="UTF-8"?>
<svg xmlns="http://www.w3.org/2000/svg" baseProfile="tiny" version="1.2" viewBox="0 0 20 20">
  <!-- Generator: Adobe Illustrator 28.7.1, SVG Export Plug-In . SVG Version: 1.2.0 Build 142)  -->
  <g>
    <g id="Layer_1">
      <path d="M3.75,1.25c0-.691-.559-1.25-1.25-1.25s-1.25.559-1.25,1.25v17.5c0,.691.559,1.25,1.25,1.25s1.25-.559,1.25-1.25v-5l2.512-.629c1.605-.402,3.305-.215,4.785.523,1.727.863,3.73.969,5.535.289l1.355-.508c.488-.184.812-.648.812-1.172V2.578c0-.898-.945-1.484-1.75-1.082l-.375.187c-1.809.906-3.938.906-5.746,0-1.371-.688-2.945-.859-4.434-.488l-2.695.68v-.625Z" fill="#fff"/>
    </g>
  </g>
</svg>