<?xml version="1.0" encoding="UTF-8"?>
<svg xmlns="http://www.w3.org/2000/svg" baseProfile="tiny" version="1.2" viewBox="0 0 25 20" fill="#8E8FA0">
  <path d="M15.026,1.25h5.009c.693,0,1.253.559,1.253,1.25s-.56,1.25-1.253,1.25h-4.446c-.204,1.007-.896,1.84-1.816,2.239v11.511h6.261c.693,0,1.253.559,1.253,1.25s-.56,1.25-1.253,1.25H5.007c-.693,0-1.253-.559-1.253-1.25s.56-1.25,1.253-1.25h6.261V5.989c-.92-.403-1.613-1.234-1.816-2.239h-4.446c-.693,0-1.253-.559-1.253-1.25s.56-1.25,1.253-1.25h5.009c.571-.757,1.479-1.25,2.505-1.25s1.934.493,2.505,1.25h.001ZM17.203,12.5h5.67l-2.838-4.851-2.834,4.851h.001ZM20.035,16.25c-2.461,0-4.509-1.328-4.931-3.082-.101-.43.039-.871.263-1.254l3.725-6.375c.196-.336.556-.539.944-.539s.748.207.944.539l3.725,6.375c.223.382.364.824.263,1.254-.423,1.754-2.47,3.082-4.931,3.082ZM4.961,7.649l-2.834,4.851h5.67l-2.838-4.851h.001ZM.034,13.168c-.101-.43.039-.871.263-1.254l3.725-6.375c.196-.336.556-.539.944-.539s.748.207.944.539l3.725,6.375c.223.382.364.824.263,1.254-.426,1.754-2.474,3.082-4.935,3.082S.456,14.922.034,13.168Z"/>
</svg>